<?xml version="1.0" encoding="UTF-8" standalone="no"?>
<!-- Generator: Adobe Illustrator 16.0.0, SVG Export Plug-In . SVG Version: 6.00 Build 0)  -->

<svg
   xmlns:dc="http://purl.org/dc/elements/1.1/"
   xmlns:cc="http://creativecommons.org/ns#"
   xmlns:rdf="http://www.w3.org/1999/02/22-rdf-syntax-ns#"
   xmlns:svg="http://www.w3.org/2000/svg"
   xmlns="http://www.w3.org/2000/svg"
   xmlns:sodipodi="http://sodipodi.sourceforge.net/DTD/sodipodi-0.dtd"
   xmlns:inkscape="http://www.inkscape.org/namespaces/inkscape"
   version="1.1"
   id="Layer_1"
   x="0px"
   y="0px"
   width="136.914px"
   height="136.913px"
   viewBox="0 0 136.914 136.913"
   enable-background="new 0 0 136.914 136.913"
   xml:space="preserve"
   inkscape:version="0.91 r13725"
   sodipodi:docname="vctm.svg"><metadata
     id="metadata39"><rdf:RDF><cc:Work
         rdf:about=""><dc:format>image/svg+xml</dc:format><dc:type
           rdf:resource="http://purl.org/dc/dcmitype/StillImage" /><dc:title></dc:title></cc:Work></rdf:RDF></metadata><defs
     id="defs37" /><sodipodi:namedview
     pagecolor="#ffffff"
     bordercolor="#666666"
     borderopacity="1"
     objecttolerance="10"
     gridtolerance="10"
     guidetolerance="10"
     inkscape:pageopacity="0"
     inkscape:pageshadow="2"
     inkscape:window-width="1440"
     inkscape:window-height="783"
     id="namedview35"
     showgrid="false"
     inkscape:zoom="2"
     inkscape:cx="34.487993"
     inkscape:cy="66.375988"
     inkscape:window-x="0"
     inkscape:window-y="0"
     inkscape:window-maximized="1"
     inkscape:current-layer="g3" /><g
     id="g3"><g
       id="g5"
       style="fill:#9ba500;fill-opacity:1"><g
         id="g7"
         style="fill:#9ba500;fill-opacity:1"><g
           id="g9"
           style="fill:#9ba500;fill-opacity:1"><g
             id="g11"
             style="fill:#9ba500;fill-opacity:1"><circle
               cx="68.457"
               cy="68.458"
               r="63.333"
               id="circle13"
               fill="#344E5D"
               style="fill:#9ba500;fill-opacity:1" /></g></g></g></g><g
       id="g15"
       transform="translate(1.685043,0.5801398)"><g
         id="g17"><path
           d="m 59.991,37.679 c 3.363,10.953 5.892,30.852 -0.456,32.801 0,0 -5.078,-14.777 -8.44,-25.73 -3.362,-10.952 -6.688,-23.554 -6.688,-23.554 2.974,-0.914 12.222,5.53 15.584,16.483 z"
           id="path19"
           inkscape:connector-curvature="0"
           style="fill:#c4beba" /><path
           d="m 80.418,113.656 c 0.369,1.203 -1.223,2.762 -3.558,3.479 l 0,0 c -2.334,0.715 -4.526,0.32 -4.896,-0.885 L 54.893,53.351 c -0.371,-1.205 0.307,-2.482 1.512,-2.854 l 0,0 c 1.205,-0.369 2.48,0.309 2.852,1.514 l 21.161,61.645 z"
           id="path21"
           inkscape:connector-curvature="0"
           style="fill:#c4beba" /></g><path
         d="m 44.406,21.195 c 0,0 3.326,12.602 6.688,23.554 3.362,10.953 8.44,25.73 8.44,25.73 0.002,-0.002 0.004,-0.002 0.006,-0.004 l 12.423,45.774 c 0.37,1.205 2.563,1.6 4.896,0.885 2.335,-0.717 3.927,-2.275 3.558,-3.479 0.001,0.001 -33.036,-93.373 -36.011,-92.46 z"
         id="path23"
         inkscape:connector-curvature="0"
         style="fill:#d0d0cf" /></g><g
       id="g25"
       transform="translate(-1.3053142,1.7517476)"><g
         id="g27"><path
           d="m 59.605,115.035 c -0.461,1.172 -2.678,1.398 -4.949,0.506 l 0,0 c -2.272,-0.895 -3.74,-2.568 -3.279,-3.74 L 77.215,51.962 c 0.462,-1.172 1.787,-1.748 2.959,-1.289 l 0,0 c 1.174,0.463 1.75,1.787 1.289,2.959 l -21.858,61.403 z"
           id="path29"
           inkscape:connector-curvature="0"
           style="fill:#c4beba" /><path
           d="m 100.975,28.025 c 0.424,-1.077 0.154,-2.189 -0.602,-2.486 -0.756,-0.297 -1.711,0.334 -2.135,1.411 L 90.72,46.062 C 89.953,45.552 88.934,44.96 87.585,44.304 L 94.926,25.646 C 95.35,24.57 95.08,23.458 94.324,23.161 93.568,22.862 92.613,23.493 92.189,24.57 L 84.897,43.105 C 84.24,42.835 83.534,42.556 82.765,42.271 82.376,42.126 82.001,41.992 81.634,41.863 L 88.89,23.421 c 0.424,-1.076 0.154,-2.189 -0.602,-2.486 -0.756,-0.298 -1.711,0.333 -2.135,1.41 l -7.33,18.636 c -1.465,-0.408 -2.687,-0.662 -3.667,-0.816 l 7.595,-19.306 c 0.424,-1.077 0.154,-2.189 -0.602,-2.487 -0.755,-0.297 -1.711,0.334 -2.133,1.411 l -8.025,20.399 c -0.067,0.168 -0.111,0.338 -0.145,0.506 -3.893,10.191 -3.629,15.984 4.488,19.178 8.092,3.184 12.231,-0.84 16.313,-10.881 0.114,-0.17 0.219,-0.354 0.3,-0.559 l 8.028,-20.401 z"
           id="path31"
           inkscape:connector-curvature="0"
           style="fill:#c4beba" /></g><path
         d="M 81.635,41.862 88.891,23.42 c 0.424,-1.076 0.154,-2.189 -0.602,-2.486 -0.756,-0.298 -1.711,0.333 -2.135,1.41 l -7.33,18.636 c -1.465,-0.408 -2.687,-0.662 -3.667,-0.816 l 7.595,-19.306 c 0.424,-1.077 0.154,-2.189 -0.602,-2.487 -0.755,-0.297 -1.711,0.334 -2.133,1.411 l -8.025,20.399 c -0.067,0.168 -0.111,0.338 -0.145,0.506 -3.521,9.221 -3.641,14.84 2.381,18.193 l -22.852,52.921 c -0.461,1.172 1.007,2.846 3.279,3.74 2.271,0.893 4.488,0.666 4.949,-0.506 0,0 20.373,-63.536 22.905,-72.847 0.002,0 -0.847,-0.316 -0.874,-0.326 z"
         id="path33"
         inkscape:connector-curvature="0"
         style="fill:#d0d0cf" /></g></g></svg>