<?xml version="1.0" encoding="UTF-8" standalone="no"?>
<!-- Generator: Adobe Illustrator 16.0.0, SVG Export Plug-In . SVG Version: 6.00 Build 0)  -->

<svg
   xmlns:dc="http://purl.org/dc/elements/1.1/"
   xmlns:cc="http://creativecommons.org/ns#"
   xmlns:rdf="http://www.w3.org/1999/02/22-rdf-syntax-ns#"
   xmlns:svg="http://www.w3.org/2000/svg"
   xmlns="http://www.w3.org/2000/svg"
   xmlns:sodipodi="http://sodipodi.sourceforge.net/DTD/sodipodi-0.dtd"
   xmlns:inkscape="http://www.inkscape.org/namespaces/inkscape"
   version="1.1"
   id="Layer_1"
   x="0px"
   y="0px"
   width="136.913px"
   height="136.913px"
   viewBox="0 0 136.913 136.913"
   enable-background="new 0 0 136.913 136.913"
   xml:space="preserve"
   inkscape:version="0.91 r13725"
   sodipodi:docname="gradire.svg"><metadata
     id="metadata69"><rdf:RDF><cc:Work
         rdf:about=""><dc:format>image/svg+xml</dc:format><dc:type
           rdf:resource="http://purl.org/dc/dcmitype/StillImage" /><dc:title></dc:title></cc:Work></rdf:RDF></metadata><defs
     id="defs67" /><sodipodi:namedview
     pagecolor="#ffffff"
     bordercolor="#666666"
     borderopacity="1"
     objecttolerance="10"
     gridtolerance="10"
     guidetolerance="10"
     inkscape:pageopacity="0"
     inkscape:pageshadow="2"
     inkscape:window-width="1440"
     inkscape:window-height="783"
     id="namedview65"
     showgrid="false"
     inkscape:zoom="1.7237224"
     inkscape:cx="-40.319717"
     inkscape:cy="68.456497"
     inkscape:window-x="0"
     inkscape:window-y="0"
     inkscape:window-maximized="1"
     inkscape:current-layer="g3" /><g
     id="g3"><g
       id="g5"
       style="fill:#9ba500;fill-opacity:1"><g
         id="g7"
         style="fill:#9ba500;fill-opacity:1"><g
           id="g9"
           style="fill:#9ba500;fill-opacity:1"><g
             id="g11"
             style="fill:#9ba500;fill-opacity:1"><circle
               fill="#FFD113"
               cx="68.457"
               cy="68.457"
               r="63.333"
               id="circle13"
               style="fill:#9ba500;fill-opacity:1" /></g></g></g></g><g
       id="g15"><g
         id="g17"><g
           id="g19"><g
             id="g21"><path
               fill="#E1F0E6"
               d="M58.948,27.997c0,0-5.84,2.307-3.227,21.517l-4.92,3.535L37.28,49.513       C37.28,49.513,42.657,32.455,58.948,27.997z"
               id="path23" /></g><g
             id="g25"><path
               fill="#FCB315"
               d="M37.28,49.513l14.293,3.535l0.152,7.068c0,0-11.064,12.907-11.834,19.979       C39.892,80.095,31.13,68.107,37.28,49.513z"
               id="path27" /></g><g
             id="g29"><path
               fill="#E1F0E6"
               d="M52.229,59.144l6.873,2.512c0,0,5.072,27.354,14.598,33.499c0,0-25.051,3.534-33.809-15.06       C39.892,80.095,42.087,69.9,52.229,59.144z"
               id="path31" /></g><g
             id="g33"><path
               fill="#E84849"
               d="M58.485,61.5c0,0,5.535,26.893,15.215,33.655c0,0,21.514,4.148,30.891-26.278L62.792,57.042       L58.485,61.5z"
               id="path35" /></g><g
             id="g37"><path
               fill="#E1F0E6"
               d="M62.792,57.042l41.645,12.603c0,0,5.07-17.52-12.447-35.808c0,0-20.439-0.768-30.889,16.905       L62.792,57.042z"
               id="path39" /></g><g
             id="g41"><path
               fill="#357180"
               d="M55.722,49.513c0,0-3.383-16.751,2.611-21.208c0,0,17.98-5.226,34.113,6.147       c0,0-14.443-2.306-31.346,16.29L55.722,49.513z"
               id="path43" /></g></g><g
           id="g45"><g
             id="g47"><path
               fill="#2A9847"
               d="M64.333,55.686c0,3.865-3.045,6.997-6.797,6.997c-3.756,0-6.801-3.132-6.801-6.997       c0-3.866,3.045-6.999,6.801-6.999C61.288,48.687,64.333,51.82,64.333,55.686z"
               id="path49" /></g><g
             id="g51"><path
               fill="#FFFFFF"
               d="M64.333,55.686c0,3.865-3.045,6.997-6.797,6.997c-3.756,0-6.801-3.132-6.801-6.997       c0-3.866,3.045-6.999,6.801-6.999C61.288,48.687,64.333,51.82,64.333,55.686z"
               id="path53" /></g><g
             id="g55"><path
               fill="#FFFFFF"
               d="M64.333,55.686c0,3.865-3.045,6.997-6.797,6.997c-3.756,0-6.801-3.132-6.801-6.997       c0-3.866,3.045-6.999,6.801-6.999C61.288,48.687,64.333,51.82,64.333,55.686z"
               id="path57" /></g></g><g
           id="g59"><circle
             fill="none"
             cx="70.416"
             cy="61.558"
             r="34.101"
             id="circle61" /></g></g><path
         opacity="0.15"
         d="M93.435,113.09c0,4.729-9.967,8.561-22.26,8.561s-22.26-3.832-22.26-8.561    c0-4.731,9.967-8.563,22.26-8.563S93.435,108.359,93.435,113.09z"
         id="path63" /></g></g></svg>