<?xml version="1.0" encoding="UTF-8" standalone="no"?>
<!-- Generator: Adobe Illustrator 16.0.0, SVG Export Plug-In . SVG Version: 6.00 Build 0)  -->

<svg
   xmlns:dc="http://purl.org/dc/elements/1.1/"
   xmlns:cc="http://creativecommons.org/ns#"
   xmlns:rdf="http://www.w3.org/1999/02/22-rdf-syntax-ns#"
   xmlns:svg="http://www.w3.org/2000/svg"
   xmlns="http://www.w3.org/2000/svg"
   xmlns:sodipodi="http://sodipodi.sourceforge.net/DTD/sodipodi-0.dtd"
   xmlns:inkscape="http://www.inkscape.org/namespaces/inkscape"
   version="1.1"
   id="Layer_1"
   x="0px"
   y="0px"
   width="136.913px"
   height="136.913px"
   viewBox="0 0 136.913 136.913"
   enable-background="new 0 0 136.913 136.913"
   xml:space="preserve"
   inkscape:version="0.91 r13725"
   sodipodi:docname="vaimo.svg"><metadata
     id="metadata63"><rdf:RDF><cc:Work
         rdf:about=""><dc:format>image/svg+xml</dc:format><dc:type
           rdf:resource="http://purl.org/dc/dcmitype/StillImage" /><dc:title></dc:title></cc:Work></rdf:RDF></metadata><defs
     id="defs61" /><sodipodi:namedview
     pagecolor="#ffffff"
     bordercolor="#666666"
     borderopacity="1"
     objecttolerance="10"
     gridtolerance="10"
     guidetolerance="10"
     inkscape:pageopacity="0"
     inkscape:pageshadow="2"
     inkscape:window-width="1440"
     inkscape:window-height="783"
     id="namedview59"
     showgrid="false"
     inkscape:zoom="1.7237224"
     inkscape:cx="-40.319717"
     inkscape:cy="68.456497"
     inkscape:window-x="0"
     inkscape:window-y="0"
     inkscape:window-maximized="1"
     inkscape:current-layer="Layer_1" /><g
     id="g3"><g
       id="g5"><g
         id="g7"><g
           id="g9"><g
             id="g11"><circle
               cx="68.457"
               cy="68.457"
               r="63.333"
               id="circle13"
               fill="#344E5D"
               style="fill:#9ba500;fill-opacity:1" /></g></g></g></g><g
       id="g15"><g
         id="g17"><path
           d="M73.042,62.781h35.516c2.531,0,4.584-6.766,4.584-6.766s-2.053-6.766-4.584-6.766H73.042     C70.51,49.25,70.51,62.781,73.042,62.781z"
           id="path19"
           fill="#67B8CB" /><path
           d="M99.391,54.584H80.165c-1.125,0-2.035,0.625-2.035,1.398c0,0.771,0.91,1.398,2.035,1.398h19.227     c1.125,0,2.035-0.627,2.035-1.398C101.426,55.209,100.516,54.584,99.391,54.584z"
           id="path21"
           fill="#E5E5E5" /><path
           d="M107.249,54.584h-2.04c-1.124,0-2.035,0.625-2.035,1.398c0,0.771,0.911,1.398,2.035,1.398h2.04     c1.125,0,2.035-0.627,2.035-1.398C109.284,55.209,108.374,54.584,107.249,54.584z"
           id="path23"
           fill="#E5E5E5" /></g><g
         id="g25"><path
           d="M69.333,34.99H33.817c-2.531,0-4.584,6.766-4.584,6.766s2.053,6.766,4.584,6.766h35.516     C71.864,48.521,71.864,34.99,69.333,34.99z"
           id="path27"
           fill="#67B8CB" /><path
           d="M42.983,43.188h19.227c1.125,0,2.035-0.625,2.035-1.398s-0.91-1.4-2.035-1.4H42.983     c-1.125,0-2.035,0.627-2.035,1.4S41.858,43.188,42.983,43.188z"
           id="path29"
           fill="#E5E5E5" /><path
           d="M35.125,43.188h2.039c1.125,0,2.036-0.625,2.036-1.398s-0.911-1.4-2.036-1.4h-2.039     c-1.125,0-2.035,0.627-2.035,1.4S34,43.188,35.125,43.188z"
           id="path31"
           fill="#E5E5E5" /></g><g
         id="g33"><path
           d="M69.333,65.641H33.817c-2.531,0-4.584,6.766-4.584,6.766s2.053,6.766,4.584,6.766h35.516     C71.864,79.172,71.864,65.641,69.333,65.641z"
           id="path35"
           fill="#67B8CB" /><path
           d="M42.983,73.84h19.227c1.125,0,2.035-0.627,2.035-1.4c0-0.771-0.91-1.398-2.035-1.398H42.983     c-1.125,0-2.035,0.627-2.035,1.398C40.948,73.213,41.858,73.84,42.983,73.84z"
           id="path37"
           fill="#E5E5E5" /><path
           d="M35.125,73.84h2.039c1.125,0,2.036-0.627,2.036-1.4c0-0.771-0.911-1.398-2.036-1.398h-2.039     c-1.125,0-2.035,0.627-2.035,1.398C33.09,73.213,34,73.84,35.125,73.84z"
           id="path39"
           fill="#E5E5E5" /></g><g
         id="g41"><g
           id="g43"><ellipse
             cx="71.16"
             cy="116.912"
             rx="15.425"
             ry="5.426"
             id="ellipse45"
             fill="#9D5D26" /></g><g
           id="g47"><ellipse
             cx="71.159"
             cy="115.893"
             rx="14.261"
             ry="4.074"
             id="ellipse49"
             fill="#AE722D" /></g><g
           id="g51"><path
             d="M75.877,114.074c0,4.701-9.168,4.701-9.168,0V27.643c0-4.701,2.053-8.514,4.584-8.514l0,0      c2.531,0,4.584,3.813,4.584,8.514V114.074z"
             id="path53"
             fill="#AE722D" /></g><g
           id="g55"><path
             d="M75.877,114.074c0,3.482-5.03,4.385-7.638,2.709c-0.913-0.586-1.446-91.111,3.054-97.654l0,0      c2.531,0,4.584,3.813,4.584,8.514V114.074z"
             id="path57"
             fill="#BB813C" /></g></g></g></g></svg>